<svg id="Layer_1" data-name="Layer 1" xmlns="http://www.w3.org/2000/svg" xmlns:xlink="http://www.w3.org/1999/xlink" viewBox="0 0 242.81 180.74"><defs><style>.cls-1,.cls-10,.cls-11,.cls-13,.cls-17,.cls-18,.cls-3,.cls-5,.cls-7,.cls-8,.cls-9{fill:none;}.cls-2{clip-path:url(#clip-path);}.cls-3{stroke:#000;}.cls-3,.cls-5,.cls-7{stroke-linecap:round;}.cls-10,.cls-11,.cls-13,.cls-17,.cls-18,.cls-3,.cls-5,.cls-7,.cls-8,.cls-9{stroke-linejoin:round;}.cls-13,.cls-3{stroke-width:1.07px;}.cls-4{fill:#cdad00;}.cls-4,.cls-5,.cls-6,.cls-7{opacity:0.15;}.cls-5{stroke:#cdad00;}.cls-5,.cls-7{stroke-width:0.71px;}.cls-6{fill:#6b8e23;}.cls-7{stroke:#6b8e23;}.cls-18,.cls-8,.cls-9{stroke:#ad8516;}.cls-10,.cls-11,.cls-17,.cls-18,.cls-8,.cls-9{stroke-width:2.13px;}.cls-11,.cls-9{stroke-dasharray:8.54 8.54;}.cls-10,.cls-11,.cls-17{stroke:#66883f;}.cls-12{font-size:10px;}.cls-12,.cls-14,.cls-15,.cls-16{font-family:ArialMT, Arial;}.cls-13{stroke:#333;}.cls-14{font-size:12px;}.cls-15{font-size:8px;}.cls-16{font-size:7px;}.cls-17,.cls-18{stroke-dasharray:3 3;}</style><clipPath id="clip-path" transform="translate(-3.8 -7.01)"><rect class="cls-1" x="36.62" y="7.54" width="209.46" height="147.62"/></clipPath></defs><title>Basal area</title><g class="cls-2"><rect class="cls-3" x="32.81" y="0.54" width="209.46" height="147.62"/><path class="cls-4" d="M90.64,148.45a2,2,0,1,1,2,2,2,2,0,0,1-2-2" transform="translate(-3.8 -7.01)"/><path class="cls-5" d="M90.64,148.45a2,2,0,1,1,2,2,2,2,0,0,1-2-2" transform="translate(-3.8 -7.01)"/><path class="cls-4" d="M90.64,148.45a2,2,0,1,1,2,2,2,2,0,0,1-2-2" transform="translate(-3.8 -7.01)"/><path class="cls-5" d="M90.64,148.45a2,2,0,1,1,2,2,2,2,0,0,1-2-2" transform="translate(-3.8 -7.01)"/><path class="cls-5" d="M90.64,103.72a2,2,0,1,1,2,2,2,2,0,0,1-2-2" transform="translate(-3.8 -7.01)"/><path class="cls-5" d="M90.64,148.45a2,2,0,1,1,2,2,2,2,0,0,1-2-2" transform="translate(-3.8 -7.01)"/><path class="cls-4" d="M132.91,148.45a2,2,0,1,1,2,2,2,2,0,0,1-2-2" transform="translate(-3.8 -7.01)"/><path class="cls-5" d="M132.91,148.45a2,2,0,1,1,2,2,2,2,0,0,1-2-2" transform="translate(-3.8 -7.01)"/><path class="cls-5" d="M132.91,148.45a2,2,0,1,1,2,2,2,2,0,0,1-2-2" transform="translate(-3.8 -7.01)"/><path class="cls-5" d="M132.91,148.45a2,2,0,1,1,2,2,2,2,0,0,1-2-2" transform="translate(-3.8 -7.01)"/><path class="cls-4" d="M132.91,148.45a2,2,0,1,1,2,2,2,2,0,0,1-2-2" transform="translate(-3.8 -7.01)"/><path class="cls-5" d="M132.91,148.45a2,2,0,1,1,2,2,2,2,0,0,1-2-2" transform="translate(-3.8 -7.01)"/><path class="cls-6" d="M70,77.55a2,2,0,1,1,2,2,2,2,0,0,1-2-2" transform="translate(-3.8 -7.01)"/><path class="cls-7" d="M70,77.55a2,2,0,1,1,2,2,2,2,0,0,1-2-2" transform="translate(-3.8 -7.01)"/><path class="cls-7" d="M70,77.55a2,2,0,1,1,2,2,2,2,0,0,1-2-2" transform="translate(-3.8 -7.01)"/><path class="cls-7" d="M70,103.72a2,2,0,1,1,2,2,2,2,0,0,1-2-2" transform="translate(-3.8 -7.01)"/><path class="cls-6" d="M70,77.55a2,2,0,1,1,2,2,2,2,0,0,1-2-2" transform="translate(-3.8 -7.01)"/><path class="cls-7" d="M70,77.55a2,2,0,1,1,2,2,2,2,0,0,1-2-2" transform="translate(-3.8 -7.01)"/><path class="cls-6" d="M151.42,44.58a2,2,0,1,1,2,2,2,2,0,0,1-2-2" transform="translate(-3.8 -7.01)"/><path class="cls-7" d="M151.42,44.58a2,2,0,1,1,2,2,2,2,0,0,1-2-2" transform="translate(-3.8 -7.01)"/><path class="cls-6" d="M151.42,77.55a2,2,0,1,1,2,2,2,2,0,0,1-2-2" transform="translate(-3.8 -7.01)"/><path class="cls-7" d="M151.42,77.55a2,2,0,1,1,2,2,2,2,0,0,1-2-2" transform="translate(-3.8 -7.01)"/><path class="cls-7" d="M151.42,59a2,2,0,1,1,2,2,2,2,0,0,1-2-2" transform="translate(-3.8 -7.01)"/><path class="cls-7" d="M151.42,103.72a2,2,0,1,1,2,2,2,2,0,0,1-2-2" transform="translate(-3.8 -7.01)"/><path class="cls-4" d="M44.72,77.55a2,2,0,1,1,2,2,2,2,0,0,1-2-2" transform="translate(-3.8 -7.01)"/><path class="cls-5" d="M44.72,77.55a2,2,0,1,1,2,2,2,2,0,0,1-2-2" transform="translate(-3.8 -7.01)"/><path class="cls-5" d="M44.72,59a2,2,0,1,1,2,2,2,2,0,0,1-2-2" transform="translate(-3.8 -7.01)"/><path class="cls-4" d="M44.72,44.58a2,2,0,1,1,2,2,2,2,0,0,1-2-2" transform="translate(-3.8 -7.01)"/><path class="cls-5" d="M44.72,44.58a2,2,0,1,1,2,2,2,2,0,0,1-2-2" transform="translate(-3.8 -7.01)"/><path class="cls-5" d="M44.72,59a2,2,0,1,1,2,2,2,2,0,0,1-2-2" transform="translate(-3.8 -7.01)"/><path class="cls-7" d="M141.17,77.55a2,2,0,1,1,2,2,2,2,0,0,1-2-2" transform="translate(-3.8 -7.01)"/><path class="cls-6" d="M141.17,77.55a2,2,0,1,1,2,2,2,2,0,0,1-2-2" transform="translate(-3.8 -7.01)"/><path class="cls-7" d="M141.17,77.55a2,2,0,1,1,2,2,2,2,0,0,1-2-2" transform="translate(-3.8 -7.01)"/><path class="cls-6" d="M141.17,77.55a2,2,0,1,1,2,2,2,2,0,0,1-2-2" transform="translate(-3.8 -7.01)"/><path class="cls-7" d="M141.17,77.55a2,2,0,1,1,2,2,2,2,0,0,1-2-2" transform="translate(-3.8 -7.01)"/><path class="cls-7" d="M141.17,148.45a2,2,0,1,1,2,2,2,2,0,0,1-2-2" transform="translate(-3.8 -7.01)"/><path class="cls-7" d="M119,148.45a2,2,0,1,1,2,2,2,2,0,0,1-2-2" transform="translate(-3.8 -7.01)"/><path class="cls-6" d="M119,59a2,2,0,1,1,2,2,2,2,0,0,1-2-2" transform="translate(-3.8 -7.01)"/><path class="cls-7" d="M119,59a2,2,0,1,1,2,2,2,2,0,0,1-2-2" transform="translate(-3.8 -7.01)"/><path class="cls-6" d="M119,77.55a2,2,0,1,1,2,2,2,2,0,0,1-2-2" transform="translate(-3.8 -7.01)"/><path class="cls-7" d="M119,77.55a2,2,0,1,1,2,2,2,2,0,0,1-2-2" transform="translate(-3.8 -7.01)"/><path class="cls-7" d="M119,148.45a2,2,0,1,1,2,2,2,2,0,0,1-2-2" transform="translate(-3.8 -7.01)"/><path class="cls-7" d="M115.74,148.45a2,2,0,1,1,2,2,2,2,0,0,1-2-2" transform="translate(-3.8 -7.01)"/><path class="cls-6" d="M115.74,103.72a2,2,0,1,1,2,2,2,2,0,0,1-2-2" transform="translate(-3.8 -7.01)"/><path class="cls-7" d="M115.74,103.72a2,2,0,1,1,2,2,2,2,0,0,1-2-2" transform="translate(-3.8 -7.01)"/><path class="cls-6" d="M115.74,103.72a2,2,0,1,1,2,2,2,2,0,0,1-2-2" transform="translate(-3.8 -7.01)"/><path class="cls-7" d="M115.74,103.72a2,2,0,1,1,2,2,2,2,0,0,1-2-2" transform="translate(-3.8 -7.01)"/><path class="cls-7" d="M115.74,148.45a2,2,0,1,1,2,2,2,2,0,0,1-2-2" transform="translate(-3.8 -7.01)"/><path class="cls-6" d="M83.34,59a2,2,0,1,1,2,2,2,2,0,0,1-2-2" transform="translate(-3.8 -7.01)"/><path class="cls-7" d="M83.34,59a2,2,0,1,1,2,2,2,2,0,0,1-2-2" transform="translate(-3.8 -7.01)"/><path class="cls-7" d="M83.34,148.45a2,2,0,1,1,2,2,2,2,0,0,1-2-2" transform="translate(-3.8 -7.01)"/><path class="cls-6" d="M83.34,103.72a2,2,0,1,1,2,2,2,2,0,0,1-2-2" transform="translate(-3.8 -7.01)"/><path class="cls-7" d="M83.34,103.72a2,2,0,1,1,2,2,2,2,0,0,1-2-2" transform="translate(-3.8 -7.01)"/><path class="cls-7" d="M83.34,148.45a2,2,0,1,1,2,2,2,2,0,0,1-2-2" transform="translate(-3.8 -7.01)"/><path class="cls-5" d="M52.85,59a2,2,0,1,1,1.95,2,2,2,0,0,1-1.95-2" transform="translate(-3.8 -7.01)"/><path class="cls-5" d="M52.85,77.55a2,2,0,1,1,1.95,2,2,2,0,0,1-1.95-2" transform="translate(-3.8 -7.01)"/><path class="cls-4" d="M52.85,44.58a2,2,0,1,1,1.95,2,2,2,0,0,1-1.95-2" transform="translate(-3.8 -7.01)"/><path class="cls-5" d="M52.85,44.58a2,2,0,1,1,1.95,2,2,2,0,0,1-1.95-2" transform="translate(-3.8 -7.01)"/><path class="cls-4" d="M52.85,44.58a2,2,0,1,1,1.95,2,2,2,0,0,1-1.95-2" transform="translate(-3.8 -7.01)"/><path class="cls-5" d="M52.85,44.58a2,2,0,1,1,1.95,2,2,2,0,0,1-1.95-2" transform="translate(-3.8 -7.01)"/><path class="cls-5" d="M100.45,77.55a2,2,0,1,1,2,2,2,2,0,0,1-2-2" transform="translate(-3.8 -7.01)"/><path class="cls-5" d="M100.45,59a2,2,0,1,1,2,2,2,2,0,0,1-2-2" transform="translate(-3.8 -7.01)"/><path class="cls-4" d="M100.45,32.82a2,2,0,1,1,2,2,2,2,0,0,1-2-2" transform="translate(-3.8 -7.01)"/><path class="cls-5" d="M100.45,32.82a2,2,0,1,1,2,2,2,2,0,0,1-2-2" transform="translate(-3.8 -7.01)"/><path class="cls-4" d="M100.45,44.58a2,2,0,1,1,2,2,2,2,0,0,1-2-2" transform="translate(-3.8 -7.01)"/><path class="cls-5" d="M100.45,44.58a2,2,0,1,1,2,2,2,2,0,0,1-2-2" transform="translate(-3.8 -7.01)"/><path class="cls-6" d="M62.62,148.45a2,2,0,1,1,1.95,2,2,2,0,0,1-1.95-2" transform="translate(-3.8 -7.01)"/><path class="cls-7" d="M62.62,148.45a2,2,0,1,1,1.95,2,2,2,0,0,1-1.95-2" transform="translate(-3.8 -7.01)"/><path class="cls-7" d="M62.62,103.72a2,2,0,1,1,1.95,2,2,2,0,0,1-1.95-2" transform="translate(-3.8 -7.01)"/><path class="cls-7" d="M62.62,148.45a2,2,0,1,1,1.95,2,2,2,0,0,1-1.95-2" transform="translate(-3.8 -7.01)"/><path class="cls-6" d="M62.62,148.45a2,2,0,1,1,1.95,2,2,2,0,0,1-1.95-2" transform="translate(-3.8 -7.01)"/><path class="cls-7" d="M62.62,148.45a2,2,0,1,1,1.95,2,2,2,0,0,1-1.95-2" transform="translate(-3.8 -7.01)"/><path class="cls-6" d="M99.56,148.45a2,2,0,1,1,2,2,2,2,0,0,1-2-2" transform="translate(-3.8 -7.01)"/><path class="cls-7" d="M99.56,148.45a2,2,0,1,1,2,2,2,2,0,0,1-2-2" transform="translate(-3.8 -7.01)"/><path class="cls-7" d="M99.56,148.45a2,2,0,1,1,2,2,2,2,0,0,1-2-2" transform="translate(-3.8 -7.01)"/><path class="cls-7" d="M99.56,103.72a2,2,0,1,1,2,2,2,2,0,0,1-2-2" transform="translate(-3.8 -7.01)"/><path class="cls-6" d="M99.56,148.45a2,2,0,1,1,2,2,2,2,0,0,1-2-2" transform="translate(-3.8 -7.01)"/><path class="cls-7" d="M99.56,148.45a2,2,0,1,1,2,2,2,2,0,0,1-2-2" transform="translate(-3.8 -7.01)"/><path class="cls-5" d="M76.7,148.45a2,2,0,1,1,2,2,2,2,0,0,1-2-2" transform="translate(-3.8 -7.01)"/><path class="cls-4" d="M76.7,103.72a2,2,0,1,1,2,2,2,2,0,0,1-2-2" transform="translate(-3.8 -7.01)"/><path class="cls-5" d="M76.7,103.72a2,2,0,1,1,2,2,2,2,0,0,1-2-2" transform="translate(-3.8 -7.01)"/><path class="cls-4" d="M76.7,59a2,2,0,1,1,2,2,2,2,0,0,1-2-2" transform="translate(-3.8 -7.01)"/><path class="cls-5" d="M76.7,59a2,2,0,1,1,2,2,2,2,0,0,1-2-2" transform="translate(-3.8 -7.01)"/><path class="cls-5" d="M76.7,103.72a2,2,0,1,1,2,2,2,2,0,0,1-2-2" transform="translate(-3.8 -7.01)"/><path class="cls-5" d="M97.2,59a2,2,0,1,1,2,2,2,2,0,0,1-2-2" transform="translate(-3.8 -7.01)"/><path class="cls-4" d="M97.2,14.25a2,2,0,1,1,2,1.95,2,2,0,0,1-2-1.95" transform="translate(-3.8 -7.01)"/><path class="cls-5" d="M97.2,14.25a2,2,0,1,1,2,1.95,2,2,0,0,1-2-1.95" transform="translate(-3.8 -7.01)"/><path class="cls-4" d="M97.2,44.58a2,2,0,1,1,2,2,2,2,0,0,1-2-2" transform="translate(-3.8 -7.01)"/><path class="cls-5" d="M97.2,44.58a2,2,0,1,1,2,2,2,2,0,0,1-2-2" transform="translate(-3.8 -7.01)"/><path class="cls-5" d="M97.2,44.58a2,2,0,1,1,2,2,2,2,0,0,1-2-2" transform="translate(-3.8 -7.01)"/><path class="cls-6" d="M104,148.45a2,2,0,1,1,2,2,2,2,0,0,1-2-2" transform="translate(-3.8 -7.01)"/><path class="cls-7" d="M104,148.45a2,2,0,1,1,2,2,2,2,0,0,1-2-2" transform="translate(-3.8 -7.01)"/><path class="cls-7" d="M104,148.45a2,2,0,1,1,2,2,2,2,0,0,1-2-2" transform="translate(-3.8 -7.01)"/><path class="cls-7" d="M104,148.45a2,2,0,1,1,2,2,2,2,0,0,1-2-2" transform="translate(-3.8 -7.01)"/><path class="cls-6" d="M104,148.45a2,2,0,1,1,2,2,2,2,0,0,1-2-2" transform="translate(-3.8 -7.01)"/><path class="cls-7" d="M104,148.45a2,2,0,1,1,2,2,2,2,0,0,1-2-2" transform="translate(-3.8 -7.01)"/><path class="cls-6" d="M91.09,148.45a2,2,0,1,1,2,2,2,2,0,0,1-2-2" transform="translate(-3.8 -7.01)"/><path class="cls-7" d="M91.09,148.45a2,2,0,1,1,2,2,2,2,0,0,1-2-2" transform="translate(-3.8 -7.01)"/><path class="cls-7" d="M91.09,77.55a2,2,0,1,1,2,2,2,2,0,0,1-2-2" transform="translate(-3.8 -7.01)"/><path class="cls-6" d="M91.09,148.45a2,2,0,1,1,2,2,2,2,0,0,1-2-2" transform="translate(-3.8 -7.01)"/><path class="cls-7" d="M91.09,148.45a2,2,0,1,1,2,2,2,2,0,0,1-2-2" transform="translate(-3.8 -7.01)"/><path class="cls-7" d="M91.09,148.45a2,2,0,1,1,2,2,2,2,0,0,1-2-2" transform="translate(-3.8 -7.01)"/><path class="cls-4" d="M178.61,59a2,2,0,1,1,1.95,2,2,2,0,0,1-1.95-2" transform="translate(-3.8 -7.01)"/><path class="cls-5" d="M178.61,59a2,2,0,1,1,1.95,2,2,2,0,0,1-1.95-2" transform="translate(-3.8 -7.01)"/><path class="cls-5" d="M178.61,59a2,2,0,1,1,1.95,2,2,2,0,0,1-1.95-2" transform="translate(-3.8 -7.01)"/><path class="cls-5" d="M178.61,44.58a2,2,0,1,1,1.95,2,2,2,0,0,1-1.95-2" transform="translate(-3.8 -7.01)"/><path class="cls-4" d="M178.61,59a2,2,0,1,1,1.95,2,2,2,0,0,1-1.95-2" transform="translate(-3.8 -7.01)"/><path class="cls-5" d="M178.61,59a2,2,0,1,1,1.95,2,2,2,0,0,1-1.95-2" transform="translate(-3.8 -7.01)"/><path class="cls-5" d="M234.61,44.58a2,2,0,1,1,1.95,2,2,2,0,0,1-1.95-2" transform="translate(-3.8 -7.01)"/><path class="cls-4" d="M234.61,59a2,2,0,1,1,1.95,2,2,2,0,0,1-1.95-2" transform="translate(-3.8 -7.01)"/><path class="cls-5" d="M234.61,59a2,2,0,1,1,1.95,2,2,2,0,0,1-1.95-2" transform="translate(-3.8 -7.01)"/><path class="cls-4" d="M234.61,44.58a2,2,0,1,1,1.95,2,2,2,0,0,1-1.95-2" transform="translate(-3.8 -7.01)"/><path class="cls-5" d="M234.61,44.58a2,2,0,1,1,1.95,2,2,2,0,0,1-1.95-2" transform="translate(-3.8 -7.01)"/><path class="cls-5" d="M234.61,59a2,2,0,1,1,1.95,2,2,2,0,0,1-1.95-2" transform="translate(-3.8 -7.01)"/><path class="cls-7" d="M93.91,77.55a2,2,0,1,1,2,2,2,2,0,0,1-2-2" transform="translate(-3.8 -7.01)"/><path class="cls-6" d="M93.91,32.82a2,2,0,1,1,2,2,2,2,0,0,1-2-2" transform="translate(-3.8 -7.01)"/><path class="cls-7" d="M93.91,32.82a2,2,0,1,1,2,2,2,2,0,0,1-2-2" transform="translate(-3.8 -7.01)"/><path class="cls-6" d="M93.91,44.58a2,2,0,1,1,2,2,2,2,0,0,1-2-2" transform="translate(-3.8 -7.01)"/><path class="cls-7" d="M93.91,44.58a2,2,0,1,1,2,2,2,2,0,0,1-2-2" transform="translate(-3.8 -7.01)"/><path class="cls-7" d="M93.91,44.58a2,2,0,1,1,2,2,2,2,0,0,1-2-2" transform="translate(-3.8 -7.01)"/><path class="cls-7" d="M116.71,77.55a2,2,0,1,1,2,2,2,2,0,0,1-2-2" transform="translate(-3.8 -7.01)"/><path class="cls-7" d="M116.71,44.58a2,2,0,1,1,2,2,2,2,0,0,1-2-2" transform="translate(-3.8 -7.01)"/><path class="cls-6" d="M116.71,44.58a2,2,0,1,1,2,2,2,2,0,0,1-2-2" transform="translate(-3.8 -7.01)"/><path class="cls-7" d="M116.71,44.58a2,2,0,1,1,2,2,2,2,0,0,1-2-2" transform="translate(-3.8 -7.01)"/><path class="cls-6" d="M116.71,44.58a2,2,0,1,1,2,2,2,2,0,0,1-2-2" transform="translate(-3.8 -7.01)"/><path class="cls-7" d="M116.71,44.58a2,2,0,1,1,2,2,2,2,0,0,1-2-2" transform="translate(-3.8 -7.01)"/><path class="cls-5" d="M77.65,44.58a2,2,0,1,1,1.95,2,2,2,0,0,1-1.95-2" transform="translate(-3.8 -7.01)"/><path class="cls-4" d="M77.65,59a2,2,0,1,1,1.95,2,2,2,0,0,1-1.95-2" transform="translate(-3.8 -7.01)"/><path class="cls-5" d="M77.65,59a2,2,0,1,1,1.95,2,2,2,0,0,1-1.95-2" transform="translate(-3.8 -7.01)"/><path class="cls-4" d="M77.65,103.72a2,2,0,1,1,1.95,2,2,2,0,0,1-1.95-2" transform="translate(-3.8 -7.01)"/><path class="cls-5" d="M77.65,103.72a2,2,0,1,1,1.95,2,2,2,0,0,1-1.95-2" transform="translate(-3.8 -7.01)"/><path class="cls-5" d="M77.65,77.55a2,2,0,1,1,1.95,2,2,2,0,0,1-1.95-2" transform="translate(-3.8 -7.01)"/><path class="cls-4" d="M164.47,77.55a2,2,0,1,1,2,2,2,2,0,0,1-2-2" transform="translate(-3.8 -7.01)"/><path class="cls-5" d="M164.47,77.55a2,2,0,1,1,2,2,2,2,0,0,1-2-2" transform="translate(-3.8 -7.01)"/><path class="cls-5" d="M164.47,59a2,2,0,1,1,2,2,2,2,0,0,1-2-2" transform="translate(-3.8 -7.01)"/><path class="cls-5" d="M164.47,148.45a2,2,0,1,1,2,2,2,2,0,0,1-2-2" transform="translate(-3.8 -7.01)"/><path class="cls-4" d="M164.47,59a2,2,0,1,1,2,2,2,2,0,0,1-2-2" transform="translate(-3.8 -7.01)"/><path class="cls-5" d="M164.47,59a2,2,0,1,1,2,2,2,2,0,0,1-2-2" transform="translate(-3.8 -7.01)"/><path class="cls-6" d="M63.21,148.45a2,2,0,1,1,2,2,2,2,0,0,1-2-2" transform="translate(-3.8 -7.01)"/><path class="cls-7" d="M63.21,148.45a2,2,0,1,1,2,2,2,2,0,0,1-2-2" transform="translate(-3.8 -7.01)"/><path class="cls-7" d="M63.21,148.45a2,2,0,1,1,2,2,2,2,0,0,1-2-2" transform="translate(-3.8 -7.01)"/><path class="cls-7" d="M63.21,103.72a2,2,0,1,1,2,2,2,2,0,0,1-2-2" transform="translate(-3.8 -7.01)"/><path class="cls-6" d="M63.21,103.72a2,2,0,1,1,2,2,2,2,0,0,1-2-2" transform="translate(-3.8 -7.01)"/><path class="cls-7" d="M63.21,103.72a2,2,0,1,1,2,2,2,2,0,0,1-2-2" transform="translate(-3.8 -7.01)"/><path class="cls-6" d="M56.54,59a2,2,0,1,1,2,2,2,2,0,0,1-2-2" transform="translate(-3.8 -7.01)"/><path class="cls-7" d="M56.54,59a2,2,0,1,1,2,2,2,2,0,0,1-2-2" transform="translate(-3.8 -7.01)"/><path class="cls-7" d="M56.54,77.55a2,2,0,1,1,2,2,2,2,0,0,1-2-2" transform="translate(-3.8 -7.01)"/><path class="cls-6" d="M56.54,59a2,2,0,1,1,2,2,2,2,0,0,1-2-2" transform="translate(-3.8 -7.01)"/><path class="cls-7" d="M56.54,59a2,2,0,1,1,2,2,2,2,0,0,1-2-2" transform="translate(-3.8 -7.01)"/><path class="cls-7" d="M56.54,59a2,2,0,1,1,2,2,2,2,0,0,1-2-2" transform="translate(-3.8 -7.01)"/><path class="cls-5" d="M119.3,59a2,2,0,1,1,2,2,2,2,0,0,1-2-2" transform="translate(-3.8 -7.01)"/><path class="cls-5" d="M119.3,44.58a2,2,0,1,1,2,2,2,2,0,0,1-2-2" transform="translate(-3.8 -7.01)"/><path class="cls-4" d="M119.3,77.55a2,2,0,1,1,2,2,2,2,0,0,1-2-2" transform="translate(-3.8 -7.01)"/><path class="cls-5" d="M119.3,77.55a2,2,0,1,1,2,2,2,2,0,0,1-2-2" transform="translate(-3.8 -7.01)"/><path class="cls-4" d="M119.3,44.58a2,2,0,1,1,2,2,2,2,0,0,1-2-2" transform="translate(-3.8 -7.01)"/><path class="cls-5" d="M119.3,44.58a2,2,0,1,1,2,2,2,2,0,0,1-2-2" transform="translate(-3.8 -7.01)"/><path class="cls-4" d="M117.68,59a2,2,0,1,1,1.95,2,2,2,0,0,1-1.95-2" transform="translate(-3.8 -7.01)"/><path class="cls-5" d="M117.68,59a2,2,0,1,1,1.95,2,2,2,0,0,1-1.95-2" transform="translate(-3.8 -7.01)"/><path class="cls-5" d="M117.68,59a2,2,0,1,1,1.95,2,2,2,0,0,1-1.95-2" transform="translate(-3.8 -7.01)"/><path class="cls-5" d="M117.68,44.58a2,2,0,1,1,1.95,2,2,2,0,0,1-1.95-2" transform="translate(-3.8 -7.01)"/><path class="cls-4" d="M117.68,59a2,2,0,1,1,1.95,2,2,2,0,0,1-1.95-2" transform="translate(-3.8 -7.01)"/><path class="cls-5" d="M117.68,59a2,2,0,1,1,1.95,2,2,2,0,0,1-1.95-2" transform="translate(-3.8 -7.01)"/><path class="cls-7" d="M79.58,148.45a2,2,0,1,1,2,2,2,2,0,0,1-2-2" transform="translate(-3.8 -7.01)"/><path class="cls-7" d="M79.58,103.72a2,2,0,1,1,2,2,2,2,0,0,1-2-2" transform="translate(-3.8 -7.01)"/><path class="cls-6" d="M79.58,103.72a2,2,0,1,1,2,2,2,2,0,0,1-2-2" transform="translate(-3.8 -7.01)"/><path class="cls-7" d="M79.58,103.72a2,2,0,1,1,2,2,2,2,0,0,1-2-2" transform="translate(-3.8 -7.01)"/><path class="cls-6" d="M79.58,103.72a2,2,0,1,1,2,2,2,2,0,0,1-2-2" transform="translate(-3.8 -7.01)"/><path class="cls-7" d="M79.58,103.72a2,2,0,1,1,2,2,2,2,0,0,1-2-2" transform="translate(-3.8 -7.01)"/><path class="cls-6" d="M66.68,59a2,2,0,1,1,2,2,2,2,0,0,1-2-2" transform="translate(-3.8 -7.01)"/><path class="cls-7" d="M66.68,59a2,2,0,1,1,2,2,2,2,0,0,1-2-2" transform="translate(-3.8 -7.01)"/><path class="cls-7" d="M66.68,44.58a2,2,0,1,1,2,2,2,2,0,0,1-2-2" transform="translate(-3.8 -7.01)"/><path class="cls-7" d="M66.68,44.58a2,2,0,1,1,2,2,2,2,0,0,1-2-2" transform="translate(-3.8 -7.01)"/><path class="cls-6" d="M66.68,77.55a2,2,0,1,1,2,2,2,2,0,0,1-2-2" transform="translate(-3.8 -7.01)"/><path class="cls-7" d="M66.68,77.55a2,2,0,1,1,2,2,2,2,0,0,1-2-2" transform="translate(-3.8 -7.01)"/><path class="cls-6" d="M203.9,44.58a2,2,0,1,1,1.95,2,2,2,0,0,1-1.95-2" transform="translate(-3.8 -7.01)"/><path class="cls-7" d="M203.9,44.58a2,2,0,1,1,1.95,2,2,2,0,0,1-1.95-2" transform="translate(-3.8 -7.01)"/><path class="cls-7" d="M203.9,148.45a2,2,0,1,1,1.95,2,2,2,0,0,1-1.95-2" transform="translate(-3.8 -7.01)"/><path class="cls-7" d="M203.9,77.55a2,2,0,1,1,1.95,2,2,2,0,0,1-1.95-2" transform="translate(-3.8 -7.01)"/><path class="cls-6" d="M203.9,44.58a2,2,0,1,1,1.95,2,2,2,0,0,1-1.95-2" transform="translate(-3.8 -7.01)"/><path class="cls-7" d="M203.9,44.58a2,2,0,1,1,1.95,2,2,2,0,0,1-1.95-2" transform="translate(-3.8 -7.01)"/><path class="cls-7" d="M95.93,44.58a2,2,0,1,1,2,2,2,2,0,0,1-2-2" transform="translate(-3.8 -7.01)"/><path class="cls-7" d="M95.93,59a2,2,0,1,1,2,2,2,2,0,0,1-2-2" transform="translate(-3.8 -7.01)"/><path class="cls-6" d="M95.93,103.72a2,2,0,1,1,2,2,2,2,0,0,1-2-2" transform="translate(-3.8 -7.01)"/><path class="cls-7" d="M95.93,103.72a2,2,0,1,1,2,2,2,2,0,0,1-2-2" transform="translate(-3.8 -7.01)"/><path class="cls-6" d="M95.93,44.58a2,2,0,1,1,2,2,2,2,0,0,1-2-2" transform="translate(-3.8 -7.01)"/><path class="cls-7" d="M95.93,44.58a2,2,0,1,1,2,2,2,2,0,0,1-2-2" transform="translate(-3.8 -7.01)"/><path class="cls-5" d="M44.19,59a2,2,0,1,1,2,2,2,2,0,0,1-2-2" transform="translate(-3.8 -7.01)"/><path class="cls-4" d="M44.19,103.72a2,2,0,1,1,2,2,2,2,0,0,1-2-2" transform="translate(-3.8 -7.01)"/><path class="cls-5" d="M44.19,103.72a2,2,0,1,1,2,2,2,2,0,0,1-2-2" transform="translate(-3.8 -7.01)"/><path class="cls-4" d="M44.19,44.58a2,2,0,1,1,2,2,2,2,0,0,1-2-2" transform="translate(-3.8 -7.01)"/><path class="cls-5" d="M44.19,44.58a2,2,0,1,1,2,2,2,2,0,0,1-2-2" transform="translate(-3.8 -7.01)"/><path class="cls-5" d="M44.19,148.45a2,2,0,1,1,2,2,2,2,0,0,1-2-2" transform="translate(-3.8 -7.01)"/><path class="cls-4" d="M44.94,44.58a2,2,0,1,1,2,2,2,2,0,0,1-2-2" transform="translate(-3.8 -7.01)"/><path class="cls-5" d="M44.94,44.58a2,2,0,1,1,2,2,2,2,0,0,1-2-2" transform="translate(-3.8 -7.01)"/><path class="cls-5" d="M44.94,59a2,2,0,1,1,2,2,2,2,0,0,1-2-2" transform="translate(-3.8 -7.01)"/><path class="cls-5" d="M44.94,148.45a2,2,0,1,1,2,2,2,2,0,0,1-2-2" transform="translate(-3.8 -7.01)"/><path class="cls-4" d="M44.94,77.55a2,2,0,1,1,2,2,2,2,0,0,1-2-2" transform="translate(-3.8 -7.01)"/><path class="cls-5" d="M44.94,77.55a2,2,0,1,1,2,2,2,2,0,0,1-2-2" transform="translate(-3.8 -7.01)"/><path class="cls-6" d="M44.19,22.87a2,2,0,1,1,2,1.95,2,2,0,0,1-2-1.95" transform="translate(-3.8 -7.01)"/><path class="cls-7" d="M44.19,22.87a2,2,0,1,1,2,1.95,2,2,0,0,1-2-1.95" transform="translate(-3.8 -7.01)"/><path class="cls-6" d="M44.19,59a2,2,0,1,1,2,2,2,2,0,0,1-2-2" transform="translate(-3.8 -7.01)"/><path class="cls-7" d="M44.19,59a2,2,0,1,1,2,2,2,2,0,0,1-2-2" transform="translate(-3.8 -7.01)"/><path class="cls-7" d="M44.19,44.58a2,2,0,1,1,2,2,2,2,0,0,1-2-2" transform="translate(-3.8 -7.01)"/><path class="cls-7" d="M44.19,44.58a2,2,0,1,1,2,2,2,2,0,0,1-2-2" transform="translate(-3.8 -7.01)"/><path class="cls-6" d="M44.19,32.82a2,2,0,1,1,2,2,2,2,0,0,1-2-2" transform="translate(-3.8 -7.01)"/><path class="cls-7" d="M44.19,32.82a2,2,0,1,1,2,2,2,2,0,0,1-2-2" transform="translate(-3.8 -7.01)"/><path class="cls-7" d="M44.19,44.58a2,2,0,1,1,2,2,2,2,0,0,1-2-2" transform="translate(-3.8 -7.01)"/><path class="cls-6" d="M44.19,59a2,2,0,1,1,2,2,2,2,0,0,1-2-2" transform="translate(-3.8 -7.01)"/><path class="cls-7" d="M44.19,59a2,2,0,1,1,2,2,2,2,0,0,1-2-2" transform="translate(-3.8 -7.01)"/><path class="cls-7" d="M44.19,59a2,2,0,1,1,2,2,2,2,0,0,1-2-2" transform="translate(-3.8 -7.01)"/><path class="cls-4" d="M149.88,103.72a2,2,0,1,1,2,2,2,2,0,0,1-2-2" transform="translate(-3.8 -7.01)"/><path class="cls-5" d="M149.88,103.72a2,2,0,1,1,2,2,2,2,0,0,1-2-2" transform="translate(-3.8 -7.01)"/><path class="cls-5" d="M149.88,77.55a2,2,0,1,1,2,2,2,2,0,0,1-2-2" transform="translate(-3.8 -7.01)"/><path class="cls-4" d="M149.88,77.55a2,2,0,1,1,2,2,2,2,0,0,1-2-2" transform="translate(-3.8 -7.01)"/><path class="cls-5" d="M149.88,77.55a2,2,0,1,1,2,2,2,2,0,0,1-2-2" transform="translate(-3.8 -7.01)"/><path class="cls-5" d="M149.88,59a2,2,0,1,1,2,2,2,2,0,0,1-2-2" transform="translate(-3.8 -7.01)"/><path class="cls-5" d="M65.36,59a2,2,0,1,1,2,2,2,2,0,0,1-2-2" transform="translate(-3.8 -7.01)"/><path class="cls-4" d="M65.36,44.58a2,2,0,1,1,2,2,2,2,0,0,1-2-2" transform="translate(-3.8 -7.01)"/><path class="cls-5" d="M65.36,44.58a2,2,0,1,1,2,2,2,2,0,0,1-2-2" transform="translate(-3.8 -7.01)"/><path class="cls-5" d="M65.36,59a2,2,0,1,1,2,2,2,2,0,0,1-2-2" transform="translate(-3.8 -7.01)"/><path class="cls-4" d="M65.36,44.58a2,2,0,1,1,2,2,2,2,0,0,1-2-2" transform="translate(-3.8 -7.01)"/><path class="cls-5" d="M65.36,44.58a2,2,0,1,1,2,2,2,2,0,0,1-2-2" transform="translate(-3.8 -7.01)"/><path class="cls-6" d="M92,148.45a2,2,0,1,1,2,2,2,2,0,0,1-2-2" transform="translate(-3.8 -7.01)"/><path class="cls-7" d="M92,148.45a2,2,0,1,1,2,2,2,2,0,0,1-2-2" transform="translate(-3.8 -7.01)"/><path class="cls-7" d="M92,59a2,2,0,1,1,2,2,2,2,0,0,1-2-2" transform="translate(-3.8 -7.01)"/><path class="cls-6" d="M92,59a2,2,0,1,1,2,2,2,2,0,0,1-2-2" transform="translate(-3.8 -7.01)"/><path class="cls-7" d="M92,59a2,2,0,1,1,2,2,2,2,0,0,1-2-2" transform="translate(-3.8 -7.01)"/><path class="cls-7" d="M92,103.72a2,2,0,1,1,2,2,2,2,0,0,1-2-2" transform="translate(-3.8 -7.01)"/><path class="cls-7" d="M88.39,103.72a2,2,0,1,1,2,2,2,2,0,0,1-2-2" transform="translate(-3.8 -7.01)"/><path class="cls-6" d="M88.39,77.55a2,2,0,1,1,2,2,2,2,0,0,1-2-2" transform="translate(-3.8 -7.01)"/><path class="cls-7" d="M88.39,77.55a2,2,0,1,1,2,2,2,2,0,0,1-2-2" transform="translate(-3.8 -7.01)"/><path class="cls-6" d="M88.39,148.45a2,2,0,1,1,2,2,2,2,0,0,1-2-2" transform="translate(-3.8 -7.01)"/><path class="cls-7" d="M88.39,148.45a2,2,0,1,1,2,2,2,2,0,0,1-2-2" transform="translate(-3.8 -7.01)"/><path class="cls-7" d="M88.39,103.72a2,2,0,1,1,2,2,2,2,0,0,1-2-2" transform="translate(-3.8 -7.01)"/><polyline class="cls-8" points="42.34 61.85 44.74 61.92 47.16 62.01 49.56 62.08 51.98 62.16 54.38 62.23 56.8 62.3 59.2 62.38 61.62 62.45 64.03 62.52 66.44 62.6 68.86 62.67 71.27 62.76 73.67 62.83 76.08 62.91 78.5 62.98 80.91 63.05 83.31 63.13 85.72 63.2 88.14 63.27 90.55 63.34 92.95 63.42 95.36 63.49 97.78 63.58 100.19 63.65 102.59 63.73 105 63.8 107.42 63.88 109.83 63.95 112.23 64.03 114.64 64.09 117.06 64.17 119.47 64.25 121.88 64.31 124.28 64.39 126.69 64.47 129.1 64.55 131.51 64.61 133.94 64.69 136.34 64.77 138.75 64.84 141.16 64.92 143.57 65 145.99 65.06 148.4 65.14 150.81 65.22 153.22 65.28 155.63 65.36 158.03 65.44 160.44 65.52 162.85 65.58 165.26 65.67 167.68 65.73 170.09 65.81 172.5 65.89 174.91 65.97 177.31 66.03 179.72 66.11 182.13 66.19 184.54 66.27 186.96 66.33 189.37 66.41 191.78 66.48 194.19 66.56 196.59 66.64 199 66.7 201.43 66.78 203.84 66.86 206.25 66.94 208.66 67 211.06 67.08 213.47 67.16 215.88 67.23 218.29 67.31 220.71 67.39 223.12 67.45 225.53 67.53 227.94 67.61 230.34 67.67 232.75 67.75"/><polyline class="cls-9" points="42.34 79.36 44.74 79.11 47.16 78.84 49.56 78.58 51.98 78.31 54.38 78.06 56.8 77.78 59.2 77.53 61.62 77.25 64.03 77 66.44 76.73 68.86 76.47 71.27 76.2 73.67 75.94 76.08 75.67 78.5 75.42 80.91 75.16 83.31 74.89 85.72 74.63 88.14 74.36 90.55 74.09 92.95 73.83 95.36 73.56 97.78 73.31 100.19 73.05 102.59 72.78 105 72.52 107.42 72.25 109.83 71.98 112.23 71.72 114.64 71.45 117.06 71.19 119.47 70.94 121.88 70.67 124.28 70.41 126.69 70.14 129.1 69.88 131.51 69.61 133.94 69.36 136.34 69.08 138.75 68.83 141.16 68.56 143.57 68.3 145.99 68.03 148.4 67.77 150.81 67.5 153.22 67.25 155.63 66.97 158.03 66.72 160.44 66.45 162.85 66.19 165.26 65.92 167.68 65.66 170.09 65.39 172.5 65.14 174.91 64.86 177.31 64.61 179.72 64.34 182.13 64.08 184.54 63.81 186.96 63.55 189.37 63.28 191.78 63.02 194.19 62.76 196.59 62.49 199 62.23 201.43 61.97 203.84 61.7 206.25 61.45 208.66 61.17 211.06 60.91 213.47 60.66 215.88 60.38 218.29 60.13 220.71 59.85 223.12 59.59 225.53 59.34 227.94 59.06 230.34 58.8 232.75 58.55"/><polyline class="cls-10" points="42.34 87.91 44.35 87.61 46.38 87.31 48.41 87.02 50.42 86.72 52.45 86.42 54.47 86.14 56.48 85.83 58.52 85.55 60.53 85.25 62.55 84.95 64.58 84.66 66.59 84.36 68.61 84.06 70.64 83.78 72.67 83.47 74.69 83.19 76.7 82.89 78.72 82.59 80.75 82.3 82.77 82 84.8 81.7 86.81 81.42 88.83 81.11 90.86 80.83 92.88 80.53 94.89 80.23 96.92 79.94 98.94 79.64 100.97 79.34 102.98 79.06 105 78.75 107.03 78.47 109.06 78.17 111.08 77.88 113.09 77.58 115.11 77.28 117.14 76.98 119.16 76.69 121.19 76.39 123.2 76.11 125.22 75.81 127.25 75.52 129.26 75.22 131.28 74.92 133.31 74.63 135.34 74.33 137.35 74.03 139.38 73.75 141.4 73.44 143.41 73.16 145.44 72.86 147.47 72.56 149.49 72.27 151.5 71.97 153.53 71.67 155.54 71.39 157.57 71.08 159.59 70.8 161.62 70.5 163.63 70.2 165.66 69.91 167.68 69.61 169.71 69.31 171.72 69.03 173.75 68.72 175.76 68.44 177.78 68.14 179.81 67.84 181.84 67.55 183.85 67.25 185.88 66.95 187.9 66.67 189.91 66.36 191.94 66.08 193.97 65.78 195.99 65.48 198 65.19 200.03 64.89 202.04 64.59"/><polyline class="cls-11" points="42.34 77.39 44.35 77.98 46.38 78.56 48.41 79.14 50.42 79.73 52.45 80.31 54.47 80.89 56.48 81.48 58.52 82.06 60.53 82.64 62.55 83.22 64.58 83.81 66.59 84.39 68.61 84.97 70.64 85.56 72.67 86.14 74.69 86.72 76.7 87.31 78.72 87.89 80.75 88.47 82.77 89.06 84.8 89.64 86.81 90.22 88.83 90.81 90.86 91.39 92.88 91.97 94.89 92.56 96.92 93.14 98.94 93.72 100.97 94.31 102.98 94.89 105 95.47 107.03 96.06 109.06 96.64 111.08 97.22 113.09 97.81 115.11 98.39 117.14 98.97 119.16 99.56 121.19 100.14 123.2 100.72 125.22 101.31 127.25 101.89 129.26 102.47 131.28 103.06 133.31 103.64 135.34 104.22 137.35 104.81 139.38 105.39 141.4 105.97 143.41 106.56 145.44 107.14 147.47 107.72 149.49 108.31 151.5 108.89 153.53 109.47 155.54 110.06 157.57 110.64 159.59 111.22 161.62 111.8 163.63 112.39 165.66 112.97 167.68 113.55 169.71 114.14 171.72 114.72 173.75 115.3 175.76 115.89 177.78 116.47 179.81 117.05 181.84 117.64 183.85 118.22 185.88 118.8 187.9 119.38 189.91 119.97 191.94 120.55 193.97 121.13 195.99 121.72 198 122.3 200.03 122.88 202.04 123.47"/></g><text class="cls-12" transform="translate(13.98 145.04)">0.0</text><text class="cls-12" transform="translate(13.98 112.76)">0.5</text><text class="cls-12" transform="translate(13.98 80.49)">1.0</text><text class="cls-12" transform="translate(13.98 48.22)">1.5</text><text class="cls-12" transform="translate(13.98 15.97)">2.0</text><line class="cls-13" x1="30.07" y1="141.44" x2="32.81" y2="141.44"/><line class="cls-13" x1="30.07" y1="109.17" x2="32.81" y2="109.17"/><line class="cls-13" x1="30.07" y1="76.9" x2="32.81" y2="76.9"/><line class="cls-13" x1="30.07" y1="44.63" x2="32.81" y2="44.63"/><line class="cls-13" x1="30.07" y1="12.37" x2="32.81" y2="12.37"/><line class="cls-13" x1="42.33" y1="150.89" x2="42.33" y2="148.15"/><line class="cls-13" x1="79" y1="150.89" x2="79" y2="148.15"/><line class="cls-13" x1="115.66" y1="150.89" x2="115.66" y2="148.15"/><line class="cls-13" x1="152.33" y1="150.89" x2="152.33" y2="148.15"/><line class="cls-13" x1="188.99" y1="150.89" x2="188.99" y2="148.15"/><line class="cls-13" x1="225.66" y1="150.89" x2="225.66" y2="148.15"/><text class="cls-12" transform="translate(39.55 160.26)">0</text><text class="cls-12" transform="translate(67.88 160.26)">1000</text><text class="cls-12" transform="translate(104.54 160.26)">2000</text><text class="cls-12" transform="translate(141.21 160.26)">3000</text><text class="cls-12" transform="translate(177.88 160.26)">4000</text><text class="cls-12" transform="translate(214.54 160.26)">5000</text><text class="cls-14" transform="translate(92.98 176.85)">Basal area (cm</text><text class="cls-15" transform="translate(173.67 170.88)">2</text><text class="cls-14" transform="translate(178.12 176.85)">)</text><text class="cls-16" transform="translate(173.66 22.2)">Post-ag.<tspan x="0" y="8.4">Remnant</tspan></text><text class="cls-16" transform="translate(200.71 7.41)">Competition:<tspan x="0" y="8.4" xml:space="preserve">   w/o    w/</tspan></text><line class="cls-8" x1="207.16" y1="21.44" x2="217.04" y2="21.44"/><line class="cls-17" x1="224.99" y1="28.74" x2="234.87" y2="28.74"/><line class="cls-10" x1="207.16" y1="28.74" x2="217.04" y2="28.74"/><line class="cls-18" x1="224.99" y1="21.44" x2="234.87" y2="21.44"/><text class="cls-14" transform="translate(10.3 119.53) rotate(-90)">Species density</text></svg>