<svg id="Layer_1" data-name="Layer 1" xmlns="http://www.w3.org/2000/svg" xmlns:xlink="http://www.w3.org/1999/xlink" viewBox="0 0 595.98 499.41"><defs><style>.cls-1,.cls-10,.cls-12,.cls-13,.cls-14,.cls-15,.cls-4,.cls-6,.cls-7,.cls-8{fill:none;}.cls-2{clip-path:url(#clip-path);}.cls-3{fill:#fff;}.cls-4{stroke:#fff;}.cls-4,.cls-6{stroke-linecap:round;}.cls-10,.cls-12,.cls-13,.cls-14,.cls-15,.cls-4,.cls-6,.cls-7,.cls-8{stroke-linejoin:round;}.cls-10,.cls-4,.cls-6{stroke-width:1.07px;}.cls-5{clip-path:url(#clip-path-2);}.cls-6{stroke:#000;}.cls-12,.cls-13,.cls-7{stroke:#cdc673;}.cls-12,.cls-13,.cls-14,.cls-15,.cls-7,.cls-8{stroke-width:4.27px;}.cls-7,.cls-8{stroke-dasharray:17.07 17.07;}.cls-14,.cls-15,.cls-8{stroke:#8b864e;}.cls-9{font-size:30px;}.cls-11,.cls-16,.cls-9{font-family:ArialMT, Arial;}.cls-10{stroke:#333;}.cls-11{font-size:36px;}.cls-13,.cls-15{stroke-dasharray:7.52 7.52;}.cls-16{font-size:24px;}.cls-17{letter-spacing:-0.05em;}</style><clipPath id="clip-path" transform="translate(1.44 -8.14)"><line class="cls-1" x1="33.05" y1="503.6" x2="594" y2="503.6"/></clipPath><clipPath id="clip-path-2" transform="translate(1.44 -8.14)"><rect class="cls-1" x="67.25" y="8.68" width="521.27" height="429.88"/></clipPath></defs><title>Fig 3_SLA_nobelow</title><g class="cls-2"><line class="cls-3" x1="34.49" y1="495.46" x2="595.44" y2="495.46"/><line class="cls-4" x1="34.49" y1="495.46" x2="595.44" y2="495.46"/></g><g class="cls-5"><rect class="cls-6" x="68.69" y="0.54" width="521.27" height="429.88"/><polyline class="cls-7" points="92.38 49.8 207.56 61.3 226.89 63.23 267.35 67.3 268.51 67.41 289.67 69.53 293.12 69.88 293.58 69.92 294.92 70.06 304.33 71 326.65 73.25 332.23 73.81 333.79 73.95 334.78 74.06 335.62 74.14 340.43 74.63 340.91 74.67 341.53 74.73 341.79 74.77 343.17 74.91 344.18 75 359.32 76.53 360.37 76.63 365.68 77.17 366.89 77.28 374.58 78.06 375.37 78.14 393.24 79.94 396.3 80.25 407.46 81.36 418 82.42 439.3 84.56 446.62 85.31 451.45 85.8 452.83 85.94 460.22 86.67 472.12 87.88 472.54 87.92 480.6 88.72 480.96 88.77 481.93 88.86 483.99 89.06 507.01 91.39 557.46 96.47 566.27 97.36"/><polyline class="cls-8" points="92.38 20.07 207.56 113.81 226.89 129.75 267.35 163.16 268.51 164.12 289.67 181.63 293.12 184.47 293.58 184.85 294.92 185.97 304.33 193.75 326.65 212.24 332.23 216.85 333.79 218.15 334.78 218.97 335.62 219.66 340.43 223.65 340.91 224.04 341.53 224.56 341.79 224.78 343.17 225.91 344.18 226.75 359.32 239.29 360.37 240.18 365.68 244.56 366.89 245.57 374.58 251.94 375.37 252.59 393.24 267.4 396.3 269.94 407.46 279.2 418 287.94 439.3 305.6 446.62 311.65 451.45 315.67 452.83 316.81 460.22 322.94 472.12 332.81 472.54 333.15 480.6 339.83 480.96 340.13 481.93 340.94 483.99 342.64 507.01 361.74 557.46 403.57 566.27 410.88"/></g><text class="cls-9" transform="translate(61.51 267.96) rotate(-90)">0.001</text><text class="cls-9" transform="translate(61.51 93.71) rotate(-90)">0.020</text><line class="cls-10" x1="65.95" y1="230.44" x2="68.69" y2="230.44"/><line class="cls-10" x1="65.95" y1="56.19" x2="68.69" y2="56.19"/><line class="cls-10" x1="96.37" y1="433.15" x2="96.37" y2="430.42"/><line class="cls-10" x1="188.87" y1="433.15" x2="188.87" y2="430.42"/><line class="cls-10" x1="281.37" y1="433.15" x2="281.37" y2="430.42"/><line class="cls-10" x1="373.86" y1="433.15" x2="373.86" y2="430.42"/><line class="cls-10" x1="466.36" y1="433.15" x2="466.36" y2="430.42"/><line class="cls-10" x1="558.86" y1="433.15" x2="558.86" y2="430.42"/><text class="cls-9" transform="translate(79.27 456.89)">−3</text><text class="cls-9" transform="translate(171.77 456.89)">−2</text><text class="cls-9" transform="translate(264.27 456.89)">−1</text><text class="cls-9" transform="translate(365.52 456.89)">0</text><text class="cls-9" transform="translate(458.02 456.89)">1</text><text class="cls-9" transform="translate(550.52 456.89)">2</text><text class="cls-11" transform="translate(191.26 487.73)">Specific leaf area</text><text class="cls-11" transform="translate(30.89 412.33) rotate(-90)">Probability of occurrence</text><line class="cls-12" x1="211.32" y1="385.85" x2="245.88" y2="385.85"/><line class="cls-12" x1="263.21" y1="385.85" x2="269.21" y2="385.85"/><line class="cls-13" x1="276.73" y1="385.85" x2="288.01" y2="385.85"/><line class="cls-12" x1="291.77" y1="385.85" x2="297.77" y2="385.85"/><line class="cls-14" x1="264.32" y1="406.85" x2="270.32" y2="406.85"/><line class="cls-15" x1="277.84" y1="406.85" x2="289.12" y2="406.85"/><line class="cls-14" x1="292.88" y1="406.85" x2="298.88" y2="406.85"/><text class="cls-16" transform="translate(88.2 393.65)"><tspan class="cls-17">T</tspan><tspan x="13.46" y="0">hinned</tspan></text><text class="cls-16" transform="translate(88.2 413.9)">Unthinned</text><text class="cls-16" transform="translate(182.11 343.4)">Competition:<tspan x="0" y="28.8" xml:space="preserve">    w/o    w/</tspan></text><line class="cls-14" x1="209.51" y1="406.85" x2="244.07" y2="406.85"/></svg>