<?xml version="1.0" encoding="utf-8"?>
<!-- Generator: Adobe Illustrator 23.0.2, SVG Export Plug-In . SVG Version: 6.00 Build 0)  -->
<svg version="1.1" id="Layer_1" xmlns="http://www.w3.org/2000/svg" xmlns:xlink="http://www.w3.org/1999/xlink" x="0px" y="0px"
	 viewBox="0 0 775.1 382.3" style="enable-background:new 0 0 775.1 382.3;" xml:space="preserve">
<style type="text/css">
	.st0{clip-path:url(#SVGID_2_);}
	.st1{fill:#FFFFFF;}
	.st2{fill:none;stroke:#FFFFFF;stroke-width:1.07;stroke-linecap:round;stroke-linejoin:round;}
	.st3{clip-path:url(#SVGID_4_);}
	.st4{fill:none;stroke:#000000;stroke-width:1.07;stroke-linecap:round;stroke-linejoin:round;}
	.st5{fill:#7F7F7F;}
	.st6{fill:none;stroke:#000000;stroke-width:1.07;stroke-linejoin:round;}
	.st7{font-family:'ArialMT';}
	.st8{font-size:30px;}
	.st9{fill:none;stroke:#333333;stroke-width:1.07;stroke-linejoin:round;}
	.st10{clip-path:url(#SVGID_6_);}
	.st11{clip-path:url(#SVGID_8_);}
	.st12{fill:#EEC900;}
	.st13{fill:none;stroke:#999999;stroke-width:0.71;stroke-linecap:round;stroke-linejoin:round;}
	.st14{fill:#556B2F;}
	.st15{fill:none;stroke:#333333;stroke-width:0.71;stroke-linecap:round;stroke-linejoin:round;}
	.st16{fill:none;stroke:#999999;stroke-width:3.63;stroke-linejoin:round;stroke-dasharray:3.63,10.88;}
	.st17{fill:none;stroke:#333333;stroke-width:3.63;stroke-linejoin:round;}
	.st18{fill:none;stroke:#999999;stroke-width:1.07;stroke-linejoin:round;}
	.st19{font-size:34px;}
	.st20{font-size:21px;}
	.st21{fill:none;stroke:#999999;stroke-width:3.63;stroke-linejoin:round;}
	.st22{fill:none;stroke:#999999;stroke-width:3.63;stroke-linejoin:round;stroke-dasharray:6.7857,6.7857;}
</style>
<title>Fig 1</title>
<g>
	<g>
		<defs>
			<rect id="SVGID_1_" x="29.3" y="9.5" width="372.6" height="323.2"/>
		</defs>
		<clipPath id="SVGID_2_">
			<use xlink:href="#SVGID_1_"  style="overflow:visible;"/>
		</clipPath>
		<g class="st0">
			<rect x="29.3" y="9.5" class="st1" width="372.6" height="323.2"/>
			<rect x="29.3" y="9.5" class="st2" width="372.6" height="323.2"/>
		</g>
	</g>
</g>
<g>
	<g>
		<defs>
			<rect id="SVGID_3_" x="81.4" y="15" width="315" height="283.5"/>
		</defs>
		<clipPath id="SVGID_4_">
			<use xlink:href="#SVGID_3_"  style="overflow:visible;"/>
		</clipPath>
		<g class="st3">
			<rect x="81.4" y="15" class="st4" width="315" height="283.5"/>
			<rect x="102.9" y="68.8" class="st5" width="128.9" height="229.7"/>
			<rect x="102.9" y="68.8" class="st6" width="128.9" height="229.7"/>
			<rect x="246.1" y="121.9" class="st1" width="128.9" height="176.6"/>
			<rect x="246.1" y="121.9" class="st6" width="128.9" height="176.6"/>
			<line class="st6" x1="160.2" y1="41.7" x2="174.5" y2="41.7"/>
			<line class="st6" x1="167.4" y1="41.7" x2="167.4" y2="93.8"/>
			<line class="st6" x1="160.2" y1="93.8" x2="174.5" y2="93.8"/>
			<line class="st6" x1="303.4" y1="99.2" x2="317.7" y2="99.2"/>
			<line class="st6" x1="310.6" y1="99.2" x2="310.6" y2="142.8"/>
			<line class="st6" x1="303.4" y1="142.8" x2="317.7" y2="142.8"/>
		</g>
	</g>
</g>
<text transform="matrix(1 0 0 1 34.82 309.27)" class="st7 st8">0.0</text>
<text transform="matrix(1 0 0 1 34.82 214.77)" class="st7 st8">1.0</text>
<text transform="matrix(1 0 0 1 34.82 120.25)" class="st7 st8">2.0</text>
<text transform="matrix(1 0 0 1 34.82 25.74)" class="st7 st8">3.0</text>
<line class="st9" x1="78.7" y1="298.5" x2="81.4" y2="298.5"/>
<line class="st9" x1="78.7" y1="204" x2="81.4" y2="204"/>
<line class="st9" x1="78.7" y1="109.5" x2="81.4" y2="109.5"/>
<line class="st9" x1="78.7" y1="15" x2="81.4" y2="15"/>
<line class="st9" x1="167.4" y1="301.2" x2="167.4" y2="298.5"/>
<line class="st9" x1="310.6" y1="301.2" x2="310.6" y2="298.5"/>
<text transform="matrix(1 0 0 1 105.68 324.98)" class="st7 st8">Excluded</text>
<text transform="matrix(1 0 0 1 258.88 324.98)" class="st7 st8">Present</text>
<g>
	<g>
		<defs>
			<rect id="SVGID_5_" x="402" y="9.5" width="372.6" height="323.2"/>
		</defs>
		<clipPath id="SVGID_6_">
			<use xlink:href="#SVGID_5_"  style="overflow:visible;"/>
		</clipPath>
		<g class="st10">
			<rect x="402" y="9.5" class="st1" width="372.6" height="323.2"/>
			<rect x="402" y="9.5" class="st2" width="372.6" height="323.2"/>
		</g>
	</g>
</g>
<g>
	<g>
		<defs>
			<rect id="SVGID_7_" x="454.1" y="15" width="315" height="283.5"/>
		</defs>
		<clipPath id="SVGID_8_">
			<use xlink:href="#SVGID_7_"  style="overflow:visible;"/>
		</clipPath>
		<g class="st11">
			<rect x="454.1" y="15" class="st4" width="315" height="283.5"/>
			<path class="st12" d="M672.2,186.1c0-6.1,4.9-11,11-11s11,4.9,11,11s-4.9,11-11,11C677.1,197.1,672.2,192.2,672.2,186.1"/>
			<path class="st13" d="M672.2,186.1c0-6.1,4.9-11,11-11s11,4.9,11,11s-4.9,11-11,11C677.1,197.1,672.2,192.2,672.2,186.1"/>
			<path class="st14" d="M529,80c0-6.1,4.9-11,11-11s11,4.9,11,11s-4.9,11-11,11C533.9,90.9,529,86,529,80"/>
			<path class="st13" d="M529,80c0-6.1,4.9-11,11-11s11,4.9,11,11s-4.9,11-11,11C533.9,90.9,529,86,529,80"/>
			<path class="st12" d="M672.2,182.5c0-6.1,4.9-11,11-11s11,4.9,11,11s-4.9,11-11,11C677.1,193.5,672.2,188.6,672.2,182.5"/>
			<path class="st15" d="M672.2,182.5c0-6.1,4.9-11,11-11s11,4.9,11,11s-4.9,11-11,11C677.1,193.5,672.2,188.6,672.2,182.5"/>
			<path class="st14" d="M529,259c0-6.1,4.9-11,11-11s11,4.9,11,11c0,6.1-4.9,11-11,11l0,0C533.9,270,529,265.1,529,259"/>
			<path class="st15" d="M529,259c0-6.1,4.9-11,11-11s11,4.9,11,11c0,6.1-4.9,11-11,11l0,0C533.9,270,529,265.1,529,259"/>
			<line class="st16" x1="540" y1="80" x2="683.2" y2="186.1"/>
			<line class="st17" x1="540" y1="259" x2="683.2" y2="182.5"/>
			<line class="st18" x1="676" y1="147.2" x2="690.4" y2="147.2"/>
			<line class="st18" x1="683.2" y1="147.2" x2="683.2" y2="220.6"/>
			<line class="st18" x1="676" y1="220.6" x2="690.4" y2="220.6"/>
			<line class="st18" x1="532.8" y1="27.8" x2="547.2" y2="27.8"/>
			<line class="st18" x1="540" y1="27.8" x2="540" y2="126.1"/>
			<line class="st18" x1="532.8" y1="126.1" x2="547.2" y2="126.1"/>
			<line class="st9" x1="676" y1="137.4" x2="690.4" y2="137.4"/>
			<line class="st9" x1="683.2" y1="137.4" x2="683.2" y2="221.9"/>
			<line class="st9" x1="676" y1="221.9" x2="690.4" y2="221.9"/>
			<line class="st9" x1="532.8" y1="228.9" x2="547.2" y2="228.9"/>
			<line class="st9" x1="540" y1="228.9" x2="540" y2="285.6"/>
			<line class="st9" x1="532.8" y1="285.6" x2="547.2" y2="285.6"/>
		</g>
	</g>
</g>
<text transform="matrix(1 0 0 1 407.45 304.02)" class="st7 st8">1.0</text>
<text transform="matrix(1 0 0 1 407.45 207.39)" class="st7 st8">2.0</text>
<text transform="matrix(1 0 0 1 407.45 110.76)" class="st7 st8">3.0</text>
<line class="st9" x1="451.3" y1="293.3" x2="454.1" y2="293.3"/>
<line class="st9" x1="451.3" y1="196.6" x2="454.1" y2="196.6"/>
<line class="st9" x1="451.3" y1="100" x2="454.1" y2="100"/>
<line class="st9" x1="540" y1="301.2" x2="540" y2="298.5"/>
<line class="st9" x1="683.2" y1="301.2" x2="683.2" y2="298.5"/>
<text transform="matrix(1 0 0 1 479.15 324.98)" class="st7 st8">Remnant</text>
<text transform="matrix(1 0 0 1 628.5 324.98)" class="st7 st8">P</text>
<text transform="matrix(1 0 0 1 647.01 324.98)" class="st7 st8">ost−ag</text>
<text transform="matrix(1 0 0 1 34.8201 371.2302)" class="st7 st19">Belowground Competition</text>
<text transform="matrix(6.123234e-17 -1 1 6.123234e-17 25.74 270.7904)" class="st7 st8">Species density</text>
<text transform="matrix(1 0 0 1 668.68 39.98)" class="st7 st20">Thinned</text>
<text transform="matrix(1 0 0 1 668.68 65.18)" class="st7 st20">Unthinned</text>
<g>
	<g>
		<line class="st21" x1="606" y1="32.9" x2="609" y2="32.9"/>
		<line class="st22" x1="615.8" y1="32.9" x2="653.1" y2="32.9"/>
		<line class="st21" x1="656.5" y1="32.9" x2="659.5" y2="32.9"/>
	</g>
</g>
<line class="st17" x1="606" y1="58.9" x2="659.5" y2="58.9"/>
<text transform="matrix(1 0 0 1 486.61 371.2303)" class="st7 st19">Land−use history</text>
</svg>
